<svg xmlns="http://www.w3.org/2000/svg" width="41" height="41" viewBox="0 0 41 41"><g transform="translate(-2049 -3051)"><g transform="translate(2049 3051.073)"><rect width="41" height="41" transform="translate(0 -0.072)" fill="#0012b5"/></g><g transform="translate(1999.349 3058.04)"><path d="M70.151,0a9.631,9.631,0,0,0-9.62,9.621c0,5.106,8.728,17.036,9.1,17.541l.347.472a.215.215,0,0,0,.347,0l.347-.472c.372-.505,9.1-12.435,9.1-17.541A9.632,9.632,0,0,0,70.151,0Zm0,6.175A3.446,3.446,0,1,1,66.7,9.621,3.45,3.45,0,0,1,70.151,6.175Z" transform="translate(0)" fill="#fff"/></g></g></svg>