<svg xmlns="http://www.w3.org/2000/svg" width="14" height="14" viewBox="0 0 14 14"><g transform="translate(-2113 -3109.171)"><g transform="translate(12.92 82)"><path d="M1,.91H15v14H1V.91Z" transform="translate(2099.08 3026.261)" fill="#fff"/><path d="M1,.91v14H15V.91H1Zm1,1H14v12H2v-12Z" transform="translate(2099.08 3026.261)" fill="#999"/></g><g transform="translate(2056.246 3111.528)"><path d="M63.754,0a3.227,3.227,0,0,0-3.223,3.223c0,1.711,2.924,5.708,3.049,5.877l.116.158a.072.072,0,0,0,.116,0l.116-.158c.125-.169,3.049-4.166,3.049-5.877A3.227,3.227,0,0,0,63.754,0Zm0,2.069A1.155,1.155,0,1,1,62.6,3.223,1.156,1.156,0,0,1,63.754,2.069Z" transform="translate(0 0)" fill="#0112b5"/></g></g></svg>